<svg version="1.1" viewBox="0.0 0.0 600.0 371.0" fill="none" stroke="none" stroke-linecap="square" stroke-miterlimit="10" width="600" height="371" xmlns:xlink="http://www.w3.org/1999/xlink" xmlns="http://www.w3.org/2000/svg"><path fill="#ffffff" fill-opacity="0.0" d="M0 0L600.0 0L600.0 371.0L0 371.0L0 0Z" fill-rule="nonzero"/><path fill="#c9daf8" d="M309.03818 6.1100154C375.65393 6.1100154 434.69357 49.004818 455.27896 112.36017L345.5984 147.99756C340.45203 132.15872 325.6921 121.43501 309.03818 121.43501Z" fill-rule="nonzero"/><path fill="#93c47d" d="M153.75922 219.83318C138.54893 173.02077 146.66849 121.755905 175.60016 81.93489C204.53181 42.113873 250.77852 18.55 300.0 18.55L300.0 133.875C287.69464 133.875 276.13297 139.76598 268.90002 149.72122C261.6671 159.67647 259.63724 172.49269 263.4398 184.1958Z" fill-rule="nonzero"/><path fill="#6aa84f" d="M446.24078 124.800156C472.48343 205.56671 428.28308 292.31482 347.5165 318.55746C266.74997 344.8001 180.00186 300.59973 153.75922 219.83318L263.4398 184.1958C270.00046 204.38744 291.6875 215.43753 311.87912 208.87686C332.07077 202.31621 343.12085 180.62918 336.5602 160.43755Z" fill-rule="nonzero"/><path fill="#c9daf8" d="M183.5 345.45C183.5 348.7637 180.8137 351.45 177.5 351.45C174.1863 351.45 171.5 348.7637 171.5 345.45C171.5 342.1363 174.1863 339.45 177.5 339.45C180.8137 339.45 183.5 342.1363 183.5 345.45Z" fill-rule="nonzero"/><path fill="#1a1a1a" d="M194.60938 349.45L194.60938 341.8719L191.78125 341.8719L191.78125 340.85626L198.59375 340.85626L198.59375 341.8719L195.75 341.8719L195.75 349.45L194.60938 349.45ZM203.54688 347.45L204.64062 347.575Q204.39062 348.52814 203.6875 349.0594Q202.98438 349.59064 201.90625 349.59064Q200.54688 349.59064 199.73438 348.7469Q198.9375 347.90314 198.9375 346.3875Q198.9375 344.825 199.75 343.96564Q200.5625 343.09064 201.84375 343.09064Q203.09375 343.09064 203.875 343.9344Q204.67188 344.77814 204.67188 346.325Q204.67188 346.41876 204.67188 346.60626L200.03125 346.60626Q200.09375 347.6375 200.60938 348.1844Q201.125 348.71564 201.90625 348.71564Q202.48438 348.71564 202.89062 348.41876Q203.3125 348.10626 203.54688 347.45ZM200.09375 345.7469L203.5625 345.7469Q203.5 344.95 203.17188 344.5594Q202.65625 343.95 201.85938 343.95Q201.125 343.95 200.625 344.4344Q200.14062 344.91876 200.09375 345.7469ZM210.35938 348.6844Q209.76562 349.1844 209.21875 349.3875Q208.6875 349.59064 208.0625 349.59064Q207.03125 349.59064 206.48438 349.09064Q205.9375 348.59064 205.9375 347.8094Q205.9375 347.35626 206.14062 346.98126Q206.34375 346.59064 206.6875 346.3719Q207.03125 346.1375 207.45312 346.02814Q207.75 345.9344 208.39062 345.85626Q209.65625 345.71564 210.26562 345.4969Q210.26562 345.27814 210.26562 345.23126Q210.26562 344.575 209.96875 344.3094Q209.5625 343.96564 208.76562 343.96564Q208.03125 343.96564 207.67188 344.23126Q207.3125 344.48126 207.14062 345.1375L206.10938 344.9969Q206.25 344.34064 206.57812 343.9344Q206.90625 343.52814 207.51562 343.3094Q208.125 343.09064 208.92188 343.09064Q209.71875 343.09064 210.21875 343.27814Q210.71875 343.46564 210.95312 343.7469Q211.1875 344.02814 211.28125 344.46564Q211.32812 344.73126 211.32812 345.4344L211.32812 346.84064Q211.32812 348.3094 211.39062 348.7Q211.46875 349.09064 211.67188 349.45L210.5625 349.45Q210.40625 349.1219 210.35938 348.6844ZM210.26562 346.325Q209.6875 346.5594 208.54688 346.73126Q207.89062 346.825 207.625 346.95Q207.35938 347.0594 207.20312 347.27814Q207.0625 347.4969 207.0625 347.77814Q207.0625 348.2 207.375 348.48126Q207.70312 348.7625 208.3125 348.7625Q208.92188 348.7625 209.39062 348.4969Q209.875 348.23126 210.09375 347.7625Q210.26562 347.40314 210.26562 346.71564L210.26562 346.325ZM213.29688 349.45L213.29688 343.23126L214.23438 343.23126L214.23438 344.10626Q214.53125 343.6375 215.01562 343.3719Q215.5 343.09064 216.125 343.09064Q216.8125 343.09064 217.25 343.3719Q217.70312 343.65314 217.875 344.16876Q218.625 343.09064 219.79688 343.09064Q220.73438 343.09064 221.21875 343.60626Q221.71875 344.10626 221.71875 345.1844L221.71875 349.45L220.67188 349.45L220.67188 345.52814Q220.67188 344.90314 220.5625 344.6219Q220.46875 344.34064 220.20312 344.16876Q219.9375 343.9969 219.5625 343.9969Q218.90625 343.9969 218.46875 344.4344Q218.04688 344.8719 218.04688 345.84064L218.04688 349.45L216.98438 349.45L216.98438 345.40314Q216.98438 344.7 216.71875 344.35626Q216.46875 343.9969 215.89062 343.9969Q215.4375 343.9969 215.0625 344.23126Q214.6875 344.46564 214.51562 344.91876Q214.34375 345.3719 214.34375 346.21564L214.34375 349.45L213.29688 349.45Z" fill-rule="nonzero"/><path fill="#6aa84f" d="M251.5 345.45C251.5 348.7637 248.8137 351.45 245.5 351.45C242.1863 351.45 239.5 348.7637 239.5 345.45C239.5 342.1363 242.1863 339.45 245.5 339.45C248.8137 339.45 251.5 342.1363 251.5 345.45Z" fill-rule="nonzero"/><path fill="#1a1a1a" d="M260.42188 349.45L260.42188 340.85626L263.39062 340.85626Q264.39062 340.85626 264.92188 340.98126Q265.65625 341.15314 266.17188 341.59064Q266.85938 342.16876 267.1875 343.075Q267.53125 343.96564 267.53125 345.10626Q267.53125 346.09064 267.29688 346.84064Q267.07812 347.59064 266.71875 348.09064Q266.35938 348.59064 265.92188 348.8719Q265.5 349.15314 264.90625 349.3094Q264.3125 349.45 263.53125 349.45L260.42188 349.45ZM261.5625 348.4344L263.39062 348.4344Q264.25 348.4344 264.73438 348.27814Q265.21875 348.1219 265.5 347.825Q265.90625 347.4344 266.125 346.7469Q266.35938 346.0594 266.35938 345.09064Q266.35938 343.7469 265.90625 343.02814Q265.46875 342.29376 264.84375 342.04376Q264.375 341.8719 263.375 341.8719L261.5625 341.8719L261.5625 348.4344ZM268.48438 349.45L271.78125 340.85626L273.0 340.85626L276.51562 349.45L275.23438 349.45L274.21875 346.84064L270.64062 346.84064L269.6875 349.45L268.48438 349.45ZM270.96875 345.91876L273.875 345.91876L272.98438 343.54376Q272.5625 342.46564 272.375 341.7625Q272.20312 342.59064 271.90625 343.40314L270.96875 345.91876ZM276.07812 345.2625Q276.07812 343.1219 277.21875 341.91876Q278.375 340.7 280.1875 340.7Q281.39062 340.7 282.34375 341.27814Q283.29688 341.84064 283.79688 342.85626Q284.29688 343.8719 284.29688 345.16876Q284.29688 346.46564 283.76562 347.4969Q283.23438 348.52814 282.26562 349.0594Q281.3125 349.59064 280.1875 349.59064Q278.96875 349.59064 278.01562 349.0125Q277.0625 348.41876 276.5625 347.41876Q276.07812 346.40314 276.07812 345.2625ZM277.25 345.27814Q277.25 346.84064 278.07812 347.73126Q278.92188 348.6219 280.1875 348.6219Q281.46875 348.6219 282.29688 347.73126Q283.125 346.825 283.125 345.15314Q283.125 344.10626 282.76562 343.325Q282.42188 342.54376 281.73438 342.1219Q281.04688 341.6844 280.20312 341.6844Q279.0 341.6844 278.125 342.5125Q277.25 343.34064 277.25 345.27814Z" fill-rule="nonzero"/><path fill="#93c47d" d="M312.5 345.45C312.5 348.7637 309.81372 351.45 306.5 351.45C303.18628 351.45 300.5 348.7637 300.5 345.45C300.5 342.1363 303.18628 339.45 306.5 339.45C309.81372 339.45 312.5 342.1363 312.5 345.45Z" fill-rule="nonzero"/><path fill="#1a1a1a" d="M321.42188 349.45L321.42188 340.85626L324.39062 340.85626Q325.39062 340.85626 325.92188 340.98126Q326.65625 341.15314 327.17188 341.59064Q327.85938 342.16876 328.1875 343.075Q328.53125 343.96564 328.53125 345.10626Q328.53125 346.09064 328.29688 346.84064Q328.07812 347.59064 327.71875 348.09064Q327.35938 348.59064 326.92188 348.8719Q326.5 349.15314 325.90625 349.3094Q325.3125 349.45 324.53125 349.45L321.42188 349.45ZM322.5625 348.4344L324.39062 348.4344Q325.25 348.4344 325.73438 348.27814Q326.21875 348.1219 326.5 347.825Q326.90625 347.4344 327.125 346.7469Q327.35938 346.0594 327.35938 345.09064Q327.35938 343.7469 326.90625 343.02814Q326.46875 342.29376 325.84375 342.04376Q325.375 341.8719 324.375 341.8719L322.5625 341.8719L322.5625 348.4344ZM329.48438 349.45L332.78125 340.85626L334.0 340.85626L337.51562 349.45L336.23438 349.45L335.21875 346.84064L331.64062 346.84064L330.6875 349.45L329.48438 349.45ZM331.96875 345.91876L334.875 345.91876L333.98438 343.54376Q333.5625 342.46564 333.375 341.7625Q333.20312 342.59064 332.90625 343.40314L331.96875 345.91876ZM337.07812 345.2625Q337.07812 343.1219 338.21875 341.91876Q339.375 340.7 341.1875 340.7Q342.39062 340.7 343.34375 341.27814Q344.29688 341.84064 344.79688 342.85626Q345.29688 343.8719 345.29688 345.16876Q345.29688 346.46564 344.76562 347.4969Q344.23438 348.52814 343.26562 349.0594Q342.3125 349.59064 341.1875 349.59064Q339.96875 349.59064 339.01562 349.0125Q338.0625 348.41876 337.5625 347.41876Q337.07812 346.40314 337.07812 345.2625ZM338.25 345.27814Q338.25 346.84064 339.07812 347.73126Q339.92188 348.6219 341.1875 348.6219Q342.46875 348.6219 343.29688 347.73126Q344.125 346.825 344.125 345.15314Q344.125 344.10626 343.76562 343.325Q343.42188 342.54376 342.73438 342.1219Q342.04688 341.6844 341.20312 341.6844Q340.0 341.6844 339.125 342.5125Q338.25 343.34064 338.25 345.27814ZM351.3125 351.98126Q350.4375 350.8719 349.82812 349.40314Q349.23438 347.91876 349.23438 346.34064Q349.23438 344.95 349.67188 343.66876Q350.20312 342.1844 351.3125 340.71564L352.0625 340.71564Q351.35938 341.9344 351.125 342.45Q350.76562 343.2625 350.5625 344.1375Q350.3125 345.23126 350.3125 346.34064Q350.3125 349.16876 352.0625 351.98126L351.3125 351.98126ZM353.29688 351.84064L353.29688 343.23126L354.25 343.23126L354.25 344.02814Q354.59375 343.5594 355.01562 343.325Q355.45312 343.09064 356.0625 343.09064Q356.85938 343.09064 357.46875 343.4969Q358.07812 343.90314 358.375 344.65314Q358.6875 345.40314 358.6875 346.29376Q358.6875 347.2469 358.34375 348.0125Q358.01562 348.77814 357.35938 349.1844Q356.70312 349.59064 355.98438 349.59064Q355.45312 349.59064 355.03125 349.3719Q354.60938 349.1375 354.34375 348.8094L354.34375 351.84064L353.29688 351.84064ZM354.25 346.3719Q354.25 347.575 354.73438 348.15314Q355.21875 348.71564 355.90625 348.71564Q356.60938 348.71564 357.10938 348.1219Q357.60938 347.52814 357.60938 346.27814Q357.60938 345.09064 357.125 344.5125Q356.64062 343.91876 355.95312 343.91876Q355.28125 343.91876 354.76562 344.54376Q354.25 345.16876 354.25 346.3719ZM364.54688 347.45L365.64062 347.575Q365.39062 348.52814 364.6875 349.0594Q363.98438 349.59064 362.90625 349.59064Q361.54688 349.59064 360.73438 348.7469Q359.9375 347.90314 359.9375 346.3875Q359.9375 344.825 360.75 343.96564Q361.5625 343.09064 362.84375 343.09064Q364.09375 343.09064 364.875 343.9344Q365.67188 344.77814 365.67188 346.325Q365.67188 346.41876 365.67188 346.60626L361.03125 346.60626Q361.09375 347.6375 361.60938 348.1844Q362.125 348.71564 362.90625 348.71564Q363.48438 348.71564 363.89062 348.41876Q364.3125 348.10626 364.54688 347.45ZM361.09375 345.7469L364.5625 345.7469Q364.5 344.95 364.17188 344.5594Q363.65625 343.95 362.85938 343.95Q362.125 343.95 361.625 344.4344Q361.14062 344.91876 361.09375 345.7469ZM367.28125 349.45L367.28125 343.23126L368.23438 343.23126L368.23438 344.16876Q368.59375 343.5125 368.89062 343.3094Q369.20312 343.09064 369.57812 343.09064Q370.10938 343.09064 370.65625 343.41876L370.29688 344.40314Q369.90625 344.16876 369.53125 344.16876Q369.17188 344.16876 368.89062 344.3875Q368.625 344.59064 368.51562 344.96564Q368.32812 345.52814 368.32812 346.1844L368.32812 349.45L367.28125 349.45ZM371.29688 349.45L371.29688 343.23126L372.23438 343.23126L372.23438 344.10626Q372.53125 343.6375 373.01562 343.3719Q373.5 343.09064 374.125 343.09064Q374.8125 343.09064 375.25 343.3719Q375.70312 343.65314 375.875 344.16876Q376.625 343.09064 377.79688 343.09064Q378.73438 343.09064 379.21875 343.60626Q379.71875 344.10626 379.71875 345.1844L379.71875 349.45L378.67188 349.45L378.67188 345.52814Q378.67188 344.90314 378.5625 344.6219Q378.46875 344.34064 378.20312 344.16876Q377.9375 343.9969 377.5625 343.9969Q376.90625 343.9969 376.46875 344.4344Q376.04688 344.8719 376.04688 345.84064L376.04688 349.45L374.98438 349.45L374.98438 345.40314Q374.98438 344.7 374.71875 344.35626Q374.46875 343.9969 373.89062 343.9969Q373.4375 343.9969 373.0625 344.23126Q372.6875 344.46564 372.51562 344.91876Q372.34375 345.3719 372.34375 346.21564L372.34375 349.45L371.29688 349.45ZM386.35938 348.6844Q385.76562 349.1844 385.21875 349.3875Q384.6875 349.59064 384.0625 349.59064Q383.03125 349.59064 382.48438 349.09064Q381.9375 348.59064 381.9375 347.8094Q381.9375 347.35626 382.14062 346.98126Q382.34375 346.59064 382.6875 346.3719Q383.03125 346.1375 383.45312 346.02814Q383.75 345.9344 384.39062 345.85626Q385.65625 345.71564 386.26562 345.4969Q386.26562 345.27814 386.26562 345.23126Q386.26562 344.575 385.96875 344.3094Q385.5625 343.96564 384.76562 343.96564Q384.03125 343.96564 383.67188 344.23126Q383.3125 344.48126 383.14062 345.1375L382.10938 344.9969Q382.25 344.34064 382.57812 343.9344Q382.90625 343.52814 383.51562 343.3094Q384.125 343.09064 384.92188 343.09064Q385.71875 343.09064 386.21875 343.27814Q386.71875 343.46564 386.95312 343.7469Q387.1875 344.02814 387.28125 344.46564Q387.32812 344.73126 387.32812 345.4344L387.32812 346.84064Q387.32812 348.3094 387.39062 348.7Q387.46875 349.09064 387.67188 349.45L386.5625 349.45Q386.40625 349.1219 386.35938 348.6844ZM386.26562 346.325Q385.6875 346.5594 384.54688 346.73126Q383.89062 346.825 383.625 346.95Q383.35938 347.0594 383.20312 347.27814Q383.0625 347.4969 383.0625 347.77814Q383.0625 348.2 383.375 348.48126Q383.70312 348.7625 384.3125 348.7625Q384.92188 348.7625 385.39062 348.4969Q385.875 348.23126 386.09375 347.7625Q386.26562 347.40314 386.26562 346.71564L386.26562 346.325ZM389.26562 349.45L389.26562 340.85626L390.32812 340.85626L390.32812 349.45L389.26562 349.45ZM391.90625 346.34064Q391.90625 344.60626 392.85938 343.77814Q393.65625 343.09064 394.8125 343.09064Q396.09375 343.09064 396.90625 343.9344Q397.73438 344.7625 397.73438 346.2469Q397.73438 347.45 397.375 348.1375Q397.01562 348.825 396.3125 349.21564Q395.625 349.59064 394.8125 349.59064Q393.51562 349.59064 392.70312 348.7625Q391.90625 347.91876 391.90625 346.34064ZM392.98438 346.34064Q392.98438 347.52814 393.5 348.1219Q394.03125 348.71564 394.8125 348.71564Q395.60938 348.71564 396.125 348.1219Q396.64062 347.52814 396.64062 346.3094Q396.64062 345.15314 396.10938 344.5594Q395.59375 343.96564 394.8125 343.96564Q394.03125 343.96564 393.5 344.5594Q392.98438 345.1375 392.98438 346.34064ZM403.35938 347.16876L404.39062 347.3094Q404.21875 348.3719 403.51562 348.98126Q402.8125 349.59064 401.79688 349.59064Q400.51562 349.59064 399.73438 348.7625Q398.96875 347.91876 398.96875 346.35626Q398.96875 345.35626 399.29688 344.60626Q399.64062 343.84064 400.3125 343.46564Q401.0 343.09064 401.8125 343.09064Q402.8125 343.09064 403.45312 343.60626Q404.10938 344.10626 404.29688 345.0594L403.26562 345.21564Q403.125 344.59064 402.75 344.27814Q402.375 343.95 401.84375 343.95Q401.04688 343.95 400.54688 344.52814Q400.04688 345.09064 400.04688 346.325Q400.04688 347.59064 400.53125 348.15314Q401.01562 348.71564 401.78125 348.71564Q402.40625 348.71564 402.8125 348.34064Q403.23438 347.96564 403.35938 347.16876ZM405.29688 349.45L405.29688 340.85626L406.35938 340.85626L406.35938 345.7625L408.84375 343.23126L410.21875 343.23126L407.82812 345.52814L410.45312 349.45L409.15625 349.45L407.09375 346.2625L406.35938 346.98126L406.35938 349.45L405.29688 349.45ZM415.54688 347.45L416.64062 347.575Q416.39062 348.52814 415.6875 349.0594Q414.98438 349.59064 413.90625 349.59064Q412.54688 349.59064 411.73438 348.7469Q410.9375 347.90314 410.9375 346.3875Q410.9375 344.825 411.75 343.96564Q412.5625 343.09064 413.84375 343.09064Q415.09375 343.09064 415.875 343.9344Q416.67188 344.77814 416.67188 346.325Q416.67188 346.41876 416.67188 346.60626L412.03125 346.60626Q412.09375 347.6375 412.60938 348.1844Q413.125 348.71564 413.90625 348.71564Q414.48438 348.71564 414.89062 348.41876Q415.3125 348.10626 415.54688 347.45ZM412.09375 345.7469L415.5625 345.7469Q415.5 344.95 415.17188 344.5594Q414.65625 343.95 413.85938 343.95Q413.125 343.95 412.625 344.4344Q412.14062 344.91876 412.09375 345.7469ZM422.32812 349.45L422.32812 348.66876Q421.73438 349.59064 420.59375 349.59064Q419.84375 349.59064 419.21875 349.1844Q418.59375 348.7625 418.25 348.02814Q417.90625 347.29376 417.90625 346.34064Q417.90625 345.41876 418.21875 344.65314Q418.53125 343.8875 419.15625 343.4969Q419.78125 343.09064 420.54688 343.09064Q421.10938 343.09064 421.54688 343.325Q421.98438 343.5594 422.26562 343.9344L422.26562 340.85626L423.3125 340.85626L423.3125 349.45L422.32812 349.45ZM419.0 346.34064Q419.0 347.54376 419.5 348.1375Q420.0 348.71564 420.6875 348.71564Q421.375 348.71564 421.85938 348.15314Q422.34375 347.59064 422.34375 346.4344Q422.34375 345.15314 421.84375 344.5594Q421.35938 343.96564 420.64062 343.96564Q419.9375 343.96564 419.46875 344.54376Q419.0 345.10626 419.0 346.34064ZM425.98438 351.98126L425.23438 351.98126Q426.98438 349.16876 426.98438 346.34064Q426.98438 345.2469 426.73438 344.15314Q426.53125 343.27814 426.17188 342.46564Q425.9375 341.95 425.23438 340.71564L425.98438 340.71564Q427.07812 342.1844 427.60938 343.66876Q428.0625 344.95 428.0625 346.34064Q428.0625 347.91876 427.45312 349.40314Q426.84375 350.8719 425.98438 351.98126Z" fill-rule="nonzero"/></svg>